HIERARCHY
ROOT root
{
	OFFSET 0.000000 0.000000 0.000000
	CHANNELS 6 Xposition Yposition Zposition Zrotation Yrotation Xrotation
	JOINT lhip
	{
		OFFSET 0.058581 -0.082280 -0.017664
		CHANNELS 3 Zrotation Yrotation Xrotation
		JOINT lknee
		{
			OFFSET 0.043451 -0.386469 0.008037
			CHANNELS 3 Zrotation Yrotation Xrotation
			JOINT lankle
			{
				OFFSET -0.014790 -0.426874 -0.037428
				CHANNELS 3 Zrotation Yrotation Xrotation
				JOINT ltoe
				{
					OFFSET 0.041054 -0.060286 0.122042
					CHANNELS 3 Zrotation Yrotation Xrotation
					End Site
					{
						OFFSET 0.000000 0.000000 0.000000
					}
				}
			}
		}
	}
	JOINT rhip
	{
		OFFSET -0.060310 -0.090513 -0.013543
		CHANNELS 3 Zrotation Yrotation Xrotation
		JOINT rknee
		{
			OFFSET -0.043257 -0.383688 -0.004843
			CHANNELS 3 Zrotation Yrotation Xrotation
			JOINT rankle
			{
				OFFSET 0.019056 -0.420046 -0.034562
				CHANNELS 3 Zrotation Yrotation Xrotation
				JOINT rtoe
				{
					OFFSET -0.034840 -0.062106 0.130323
					CHANNELS 3 Zrotation Yrotation Xrotation
					End Site
					{
						OFFSET 0.000000 0.000000 0.000000
					}
				}
			}
		}
	}
	JOINT lowerback
	{
		OFFSET 0.004439 0.124404 -0.038385
		CHANNELS 3 Zrotation Yrotation Xrotation
		JOINT upperback
		{
			OFFSET 0.004488 0.137956 0.026820
			CHANNELS 3 Zrotation Yrotation Xrotation
			JOINT chest
			{
				OFFSET -0.002265 0.056032 0.002855
				CHANNELS 3 Zrotation Yrotation Xrotation
				JOINT lowerneck
				{
					OFFSET -0.013390 0.211636 -0.033468
					CHANNELS 3 Zrotation Yrotation Xrotation
					JOINT upperneck
					{
						OFFSET 0.010113 0.088937 0.050410
						CHANNELS 3 Zrotation Yrotation Xrotation
						End Site
						{
							OFFSET 0.000000 0.000000 0.000000
						}
					}
				}
				JOINT lclavicle
				{
					OFFSET 0.071702 0.114000 -0.018898
					CHANNELS 3 Zrotation Yrotation Xrotation
					JOINT lshoulder
					{
						OFFSET 0.122921 0.045205 -0.019046
						CHANNELS 3 Zrotation Yrotation Xrotation
						JOINT lelbow
						{
							OFFSET 0.255332 -0.015649 -0.022946
							CHANNELS 3 Zrotation Yrotation Xrotation
							JOINT lwrist
							{
								OFFSET 0.265709 0.012698 -0.007375
								CHANNELS 3 Zrotation Yrotation Xrotation
								End Site
								{
									OFFSET 0.000000 0.000000 0.000000
								}
							}
						}
					}
				}
				JOINT rclavicle
				{
					OFFSET -0.082954 0.112472 -0.023707
					CHANNELS 3 Zrotation Yrotation Xrotation
					JOINT rshoulder
					{
						OFFSET -0.113228 0.046853 -0.008472
						CHANNELS 3 Zrotation Yrotation Xrotation
						JOINT relbow
						{
							OFFSET -0.260127 -0.014369 -0.031269
							CHANNELS 3 Zrotation Yrotation Xrotation
							JOINT rwrist
							{
								OFFSET -0.269108 0.006794 -0.006027
								CHANNELS 3 Zrotation Yrotation Xrotation
								End Site
								{
									OFFSET 0.000000 0.000000 0.000000
								}
							}
						}
					}
				}
			}
		}
	}
}
MOTION
Frames: 17
Frame Time: 0.033333
-1.742648 0.285162 0.994147 91.111446 1.378621 87.092870 -1.902630 1.877605 2.049851 -1.456859 -6.968810 5.470673 8.425551 13.472827 -13.301891 0.000000 -0.000000 0.000000 0.370088 -1.432896 -5.065326 0.552607 0.893935 18.354703 1.367907 -8.925392 -16.217003 0.000000 -0.000000 0.000000 0.351159 -0.511686 6.223226 1.725105 -1.196168 -4.806155 -0.368155 -1.549734 3.141662 2.904868 -3.674149 0.502859 -1.250426 -6.701570 10.027974 -26.435776 5.394259 2.369867 -56.125488 -5.349752 9.321457 6.502716 -29.177903 14.914033 -2.425609 1.970972 2.386603 26.087999 -0.445544 0.223785 57.528087 1.288355 16.115612 -11.342261 27.443712 6.539790 -1.552840 -0.414041 2.230622 
-1.742221 0.284840 0.993298 91.122561 1.299446 87.051555 -1.913577 1.813379 2.166682 -1.496155 -6.916024 5.234947 8.232018 13.454626 -13.309741 0.000000 -0.000000 0.000000 0.255431 -1.285904 -4.944790 0.672504 0.969639 18.252463 1.594934 -9.209624 -16.330789 0.000000 -0.000000 0.000000 0.401077 -0.591578 6.252697 1.639197 -1.231957 -3.721977 -0.408643 -1.396433 2.231237 2.932002 -3.236960 -0.017251 -1.420682 -6.500069 9.695069 -26.038562 5.529135 2.136413 -56.514285 -5.212824 9.566494 6.656790 -29.228685 15.357645 -2.556093 1.803471 1.483732 25.736950 -0.408338 0.247163 58.045526 1.333761 16.608451 -11.612504 27.421463 6.808575 -1.616677 -0.660571 1.577947 
-1.741708 0.284499 0.992438 91.216353 1.230904 86.975306 -1.901024 1.942386 2.249449 -1.496959 -6.871161 5.092439 7.913092 13.166899 -13.343920 0.000000 -0.000000 0.000000 0.201120 -1.427007 -4.844384 0.614284 0.868363 18.208087 1.552301 -9.061748 -16.303877 0.000000 -0.000000 0.000000 0.703056 -0.980357 6.566732 1.481092 -1.662347 -3.030171 -0.668758 -1.029191 1.327376 2.945241 -2.482741 -0.689397 -1.660510 -6.053167 9.828719 -25.722830 5.994638 1.479474 -56.606596 -4.811420 9.478195 6.320319 -29.137310 15.796249 -2.680072 1.500881 1.477285 25.603077 -0.178101 0.569824 58.504357 1.818403 16.682608 -11.610531 26.930207 6.742353 -1.706221 -0.429915 1.712504 
-1.740936 0.283884 0.991111 91.247550 1.238239 86.726022 -1.736079 2.139456 2.544300 -1.559016 -6.853020 4.907930 7.505523 12.883781 -13.254533 0.000000 -0.000000 0.000000 0.262117 -1.585409 -4.539694 0.526769 0.830077 18.116390 1.467152 -8.917821 -16.291150 0.000000 -0.000000 0.000000 0.787842 -0.931278 6.942456 1.381293 -1.663325 -1.866725 -0.629674 -0.999421 0.358426 3.172787 -2.021264 -1.769211 -1.794429 -6.150962 10.128140 -25.312380 6.103576 0.917405 -57.083501 -4.883702 9.541648 6.117377 -28.768039 16.054298 -2.747312 1.283475 1.765543 25.407406 -0.179227 0.295443 58.773956 2.115562 16.766575 -11.502381 26.566044 6.497789 -1.645540 -0.262647 1.825070 
-1.740489 0.283430 0.990649 91.196933 1.235071 86.639451 -1.658815 2.208882 2.661114 -1.617753 -6.868322 4.825454 7.297630 12.845747 -13.233848 0.000000 -0.000000 0.000000 0.309916 -1.597309 -4.405832 0.478098 0.848723 18.037235 1.444306 -8.873192 -16.277803 0.000000 -0.000000 0.000000 0.727427 -0.775320 7.033222 1.329804 -1.414433 -1.489954 -0.488665 -1.103786 0.168175 3.260117 -1.952841 -2.181946 -1.793078 -6.352618 10.310076 -25.185352 5.883181 0.966009 -57.402338 -5.161812 9.607717 6.273009 -28.498363 15.886619 -2.749998 1.240139 1.927221 25.359980 -0.230306 0.025477 58.819273 2.163205 16.796016 -11.456956 26.452250 6.358733 -1.614288 -0.236306 1.825626 
-1.739552 0.283364 0.990365 91.188743 1.159789 86.706377 -1.729629 2.227965 2.668643 -1.606307 -6.877534 4.748469 7.293320 12.819716 -13.249883 0.000000 -0.000000 0.000000 0.223989 -1.674960 -4.352630 0.478972 0.844043 17.912577 1.451388 -8.790976 -16.273521 0.000000 -0.000000 0.000000 0.766534 -0.727258 6.917671 1.258788 -1.411382 -1.432064 -0.495763 -1.075480 0.173390 3.230511 -1.910723 -2.227935 -1.720013 -6.364156 10.236428 -25.165669 5.727957 1.156483 -57.529955 -5.211037 9.571872 6.466201 -28.457240 15.684632 -2.762729 1.315243 1.952440 25.387236 -0.110597 0.126363 58.853036 2.258200 16.681345 -11.493703 26.378828 6.266068 -1.579917 -0.258376 1.854056 
-1.738650 0.283266 0.990005 91.140745 1.105529 86.759299 -1.769212 2.260099 2.696953 -1.600627 -6.884354 4.688262 7.290697 12.823870 -13.247739 0.000000 -0.000000 0.000000 0.171177 -1.720768 -4.314450 0.471187 0.866769 17.833707 1.474055 -8.734984 -16.279206 0.000000 -0.000000 0.000000 0.751029 -0.648739 6.798302 1.244516 -1.383590 -1.385445 -0.462542 -0.987835 0.242516 3.255720 -1.949656 -2.314301 -1.656583 -6.487471 10.222577 -25.093786 5.633830 1.129789 -57.721693 -5.244593 9.617843 6.536033 -28.329840 15.599626 -2.694212 1.371667 2.013711 25.384840 -0.086711 0.215242 58.844560 2.315622 16.621522 -11.573067 26.447303 6.233935 -1.576195 -0.257483 1.878594 
-1.738001 0.282897 0.989957 91.014655 1.092759 86.714398 -1.738806 2.351474 2.836918 -1.620782 -6.881225 4.602422 7.269997 12.830494 -13.268567 0.000000 -0.000000 0.000000 0.215526 -1.686709 -4.236798 0.412979 0.912358 17.823017 1.487880 -8.690561 -16.302394 0.000000 -0.000000 0.000000 0.729913 -0.655249 6.905819 1.270787 -1.269465 -1.444664 -0.401512 -0.886976 0.206201 3.288870 -1.916851 -2.341328 -1.650413 -6.468721 10.314361 -25.045724 5.689872 0.999432 -57.851508 -5.227168 9.648450 6.457940 -28.189351 15.679204 -2.646231 1.324586 2.085863 25.357362 -0.111135 0.236969 58.841414 2.350888 16.620313 -11.619603 26.450351 6.200769 -1.607078 -0.240345 1.882376 
-1.737577 0.282632 0.989511 91.073892 1.013215 86.836974 -1.828696 2.298381 2.682298 -1.626187 -6.851644 4.680356 7.349683 12.772052 -13.295858 0.000000 -0.000000 0.000000 0.109965 -1.729736 -4.372422 0.405091 0.786063 17.880614 1.482981 -8.563351 -16.328129 0.000000 -0.000000 0.000000 0.701912 -0.639978 6.893983 1.257461 -1.340921 -1.525244 -0.344797 -0.853281 0.334704 3.257251 -1.992891 -2.447726 -1.436659 -6.476221 9.667901 -24.838029 5.810782 0.754319 -58.165044 -5.244191 9.656389 6.310937 -28.182180 15.998837 -2.662280 1.360081 2.022311 25.103705 -0.282487 0.045294 59.089047 2.496896 16.543105 -11.536686 26.522585 6.469759 -1.624800 -0.236368 1.860639 
-1.736839 0.282927 0.989156 91.206646 0.919577 87.057984 -1.975928 2.125714 2.494361 -1.584656 -6.845642 4.652759 7.316684 12.801998 -13.251198 0.000000 -0.000000 0.000000 -0.053445 -1.756936 -4.528272 0.494714 0.761366 17.823796 1.524784 -8.655083 -16.352201 0.000000 -0.000000 0.000000 0.766726 -0.584880 6.607155 1.227496 -1.450681 -1.609278 -0.380166 -0.930568 0.284603 3.391719 -1.969380 -2.414786 -1.512781 -6.607569 10.255791 -24.855296 5.775128 0.965801 -58.236107 -5.250313 9.732421 6.448568 -28.045088 15.827029 -2.691767 1.254395 2.014096 25.239862 -0.251791 0.238217 58.980888 2.539173 16.553127 -11.741642 26.454280 6.182944 -1.609546 -0.186151 1.845061 
-1.736232 0.283008 0.988945 91.267104 0.921940 87.075152 -1.955535 2.138225 2.496050 -1.591015 -6.873099 4.695396 7.252825 12.754472 -13.289809 0.000000 -0.000000 0.000000 -0.051987 -1.803935 -4.483520 0.495407 0.773250 17.795063 1.527656 -8.687789 -16.366089 0.000000 -0.000000 0.000000 0.824018 -0.587675 6.609536 1.260781 -1.511221 -1.592700 -0.376499 -0.978560 0.267306 3.460833 -2.032211 -2.578052 -1.481429 -6.677792 10.257879 -24.943282 5.805189 0.955466 -58.197107 -5.232136 9.746782 6.426378 -28.033853 15.847240 -2.654124 1.218093 2.075536 25.329196 -0.236915 0.113674 58.865230 2.508410 16.552069 -11.761478 26.417282 6.114084 -1.668078 -0.202145 1.900081 
-1.735770 0.282887 0.988950 91.312849 0.908227 87.100255 -1.957067 2.121920 2.495071 -1.596197 -6.886506 4.702036 7.222278 12.733675 -13.310655 0.000000 -0.000000 0.000000 -0.054000 -1.812776 -4.465785 0.494386 0.778696 17.780528 1.528158 -8.727411 -16.391114 0.000000 -0.000000 0.000000 0.846947 -0.636250 6.672514 1.287446 -1.554530 -1.693959 -0.363595 -1.032153 0.230443 3.520081 -2.044658 -2.628439 -1.459210 -6.648951 10.273166 -25.019405 5.893848 1.001343 -58.168629 -5.177834 9.734523 6.459179 -28.099363 15.843806 -2.629980 1.191474 2.028875 25.367058 -0.246261 0.051002 58.831681 2.491155 16.577608 -11.761271 26.382602 6.104435 -1.694466 -0.210570 1.925279 
-1.735220 0.282775 0.988917 91.333087 0.901745 87.114045 -1.948791 2.113904 2.537066 -1.598505 -6.869230 4.669192 7.205738 12.717078 -13.331413 0.000000 -0.000000 0.000000 -0.054214 -1.824735 -4.424721 0.503162 0.787736 17.751118 1.534861 -8.756844 -16.433457 0.000000 -0.000000 0.000000 0.834506 -0.640020 6.662297 1.336990 -1.580409 -1.735786 -0.329633 -1.061843 0.193677 3.633077 -2.084785 -2.729818 -1.478878 -6.758953 10.417728 -25.092501 5.904057 1.029743 -58.185764 -5.144273 9.759882 6.527516 -28.082261 15.778624 -2.620032 1.113889 2.024864 25.429373 -0.258206 0.073163 58.767743 2.478635 16.591066 -11.803783 26.371129 6.015032 -1.719628 -0.192766 1.889736 
-1.734501 0.282693 0.988598 91.320186 0.899421 87.132344 -1.929820 2.080557 2.602595 -1.594786 -6.824739 4.600973 7.172934 12.726597 -13.315861 0.000000 -0.000000 0.000000 -0.055175 -1.837814 -4.384752 0.509724 0.806694 17.731655 1.529584 -8.762803 -16.463749 0.000000 -0.000000 0.000000 0.808188 -0.600165 6.550362 1.394136 -1.606581 -1.660061 -0.312543 -1.103966 0.248711 3.763301 -2.074537 -2.820925 -1.459591 -6.909117 10.574834 -25.152870 5.898310 1.065898 -58.185369 -5.202839 9.817021 6.600167 -28.131634 15.670475 -2.614211 1.045927 2.066793 25.542172 -0.294075 0.012265 58.645737 2.500943 16.620104 -11.783850 26.389166 5.937628 -1.733539 -0.139335 1.853611 
-1.733834 0.282493 0.988394 91.262507 0.877490 87.142568 -1.938927 2.071484 2.667931 -1.585792 -6.819222 4.543809 7.142030 12.793073 -13.309047 0.000000 -0.000000 0.000000 -0.068440 -1.820767 -4.363553 0.508456 0.823595 17.743488 1.537187 -8.753164 -16.493694 0.000000 -0.000000 0.000000 0.799727 -0.614250 6.519321 1.416409 -1.604546 -1.644836 -0.302515 -1.154245 0.288858 3.761758 -2.097824 -2.813851 -1.436402 -6.965594 10.583981 -25.235205 5.978021 1.042647 -58.120638 -5.214642 9.825342 6.601444 -28.259394 15.676889 -2.623981 1.059754 2.083264 25.576158 -0.328702 -0.069096 58.668226 2.513839 16.648231 -11.763547 26.358190 5.968192 -1.747250 -0.118223 1.894186 
-1.733291 0.282298 0.988436 91.216670 0.863039 87.135859 -1.954156 2.072401 2.716727 -1.560298 -6.817289 4.530707 7.149111 12.831830 -13.312490 0.000000 -0.000000 0.000000 -0.073954 -1.806220 -4.332041 0.516910 0.841582 17.754495 1.514751 -8.755479 -16.500028 0.000000 -0.000000 0.000000 0.841960 -0.665946 6.603459 1.446312 -1.595633 -1.722060 -0.209993 -1.318369 0.159437 3.625552 -2.020683 -2.789828 -1.544513 -6.556302 10.489865 -25.502251 6.164154 0.852117 -57.929511 -5.023670 9.695210 6.447644 -28.344105 15.827626 -2.672016 1.109050 2.073814 25.391065 -0.222129 0.148940 58.869646 2.575731 16.650147 -11.868204 26.251916 5.920035 -1.783674 -0.153854 1.970299 
-1.732792 0.282225 0.988471 91.208999 0.838061 87.098335 -1.977597 2.113109 2.760025 -1.540473 -6.822997 4.572549 7.227073 12.812824 -13.341362 0.000000 -0.000000 0.000000 -0.103541 -1.843349 -4.278416 0.527744 0.842565 17.785944 1.453638 -8.737852 -16.520869 0.000000 -0.000000 0.000000 0.861084 -0.697145 6.703132 1.477672 -1.619865 -1.736128 -0.104620 -1.490590 -0.047508 3.593606 -1.899979 -2.746419 -1.701289 -5.899782 10.216492 -25.790381 6.262277 0.777025 -57.722217 -4.846964 9.503647 6.353888 -28.461773 15.876708 -2.716855 1.130570 2.031151 25.221018 -0.160406 0.411236 58.982470 2.667920 16.576945 -11.866772 26.168605 5.902634 -1.788953 -0.204198 2.045593 
